M48
;Layer_Color=9474304
;FILE_FORMAT=2:5
INCH,LZ
;TYPE=PLATED
T01F00S00C0.00787
T02F00S00C0.03150
T03F00S00C0.03504
T04F00S00C0.04016
T05F00S00C0.06220
T06F00S00C0.09449
T07F00S00C0.15354
;TYPE=NON_PLATED
T08F00S00C0.12835
%
T01
X0008268Y0002331
X001811
X00165Y0008
X0013189Y0012173
X00155Y00185
X00145Y00255
X0013189Y0031858
X00055Y00335
X0008268Y0041701
X00035Y00435
X001811Y0041701
X0027953
X0023031Y0051543
X0013189
X001811Y0061386
X0027953
X0023031Y0071228
X0013189
X001811Y0081071
X0027953
X0023031Y0090913
X0013189
X001811Y0100756
X0027953
X0023031Y0110598
X0013189
X00105Y01155
X00045Y01075
X0008268Y0100756
Y0081071
Y0061386
X0047638
X0052559Y0051543
Y0031858
Y0012173
X004354Y0006995
X0047638Y0002331
X0037795
X0027953
X0025401Y0007252
X00055Y001
X0008268Y0016
Y0022016
X0042717Y0071228
X0052563Y0086163
X0052559Y0090913
Y0110598
X0062402
X0072244
X0082087
X00785Y01055
X0081Y0098
X0085
X00885
Y0087
X0087Y0083714
X00825Y0083909
X00835Y0087
X0082Y00915
X0095Y0089434
X0092Y0084311
X0099Y0083136
Y0080864
X01025Y007812
X0101772Y0071228
X0097Y0071453
Y0074405
Y00685
X009685Y0061386
X00935Y0062594
Y0059646
X0088Y0059642
X0082Y006
Y0058
X0082516Y00626
X0080699Y0064411
Y0066683
X00825Y00685
X0081Y0070317
Y0072589
X00825Y0074996
X0077165Y0058916
X0073995Y0059646
X00745Y0055941
X00725Y0046
X0077165Y0041701
X00815Y0046
X0087008Y0041701
X009685
X0102Y0045
X0101772Y0051543
X0103669Y00575
X0103213Y0061386
X00975Y00555
X00935Y0052
X00925Y00465
X0091929Y0031858
X00985Y00315
X0098906Y0026235
X009685Y0022016
X0106693
X0109176Y00165
X01125Y0014417
Y0007
X0116535Y0002331
X0126378
X01315Y0007
X0136221Y0002331
X0146063
X01505Y0007
X0155905Y0002331
X0165748
X01705Y00065
X0170669Y0012173
X0180512
X0190354
Y00065
X0195276Y0002331
X0205118
X0210039Y0012173
X0200197
X0205118Y0022016
X0195276
X0185433
X0175591
X0181Y00305
Y0037
X0182799
Y00405
X0181
Y0044
X0182799
X0181Y0049
X0175591
Y0041701
X01745Y00377
X01695
X0167Y00375
X01585Y003795
X01535
X01485Y0038021
X0146Y00405
X0143Y003795
X0145Y0035
X01375Y003795
X0132
X01345Y0035
X0135142Y0045
X01295
X012171Y0045625
X0123052Y0048838
X0123Y0052799
X0122614Y005671
X0124Y0063
X01275Y0064896
Y0067167
Y0074738
Y007701
Y00835
X0126715Y0086
X0125486Y0088496
X012985Y0092091
X0134799Y0098201
X0136221Y0100756
X0136909Y0105193
X0141601Y0103
X01465Y01055
X0150437Y0103
X0153449Y01055
X01595Y01065
X0165Y01045
X0165748Y0100756
X0175591
X01795Y0097691
X0184Y00945
X0180512Y0090913
X0178776Y0083837
X0184119
X0187262Y0086987
X01925Y0087747
X0190354Y0090913
X0195Y00935
X0194Y0096758
X0195276Y0100756
X0189Y00975
X0185433Y0100756
X0181Y0106
Y0114
X019
Y0106
X02005
Y0114
X02105
X0205118Y0100756
X0201847Y0096758
X0205118Y0090253
Y0081071
X0195276
X01935Y0076987
X0190354Y0078573
X0185371Y0077088
X0180918Y0075888
X0178503Y0073
X01735
Y0067016
X0181921
X0185371Y0069427
X0190354Y0071228
X0190656Y0067557
X0195276Y0061386
X0189971Y0056987
X0183071Y0057097
X0175915
X0169646
X01605Y0057022
Y0059293
Y0062927
Y0065199
Y0068833
Y0071104
Y0074669
Y0076941
X01625Y0081886
X0156Y0087854
Y0092
X01515Y00955
X0146
X0148921Y00885
X0147672Y0084209
X0150365Y0084
Y0076052
X0153448
Y0072842
X0150365
X0147281
X0144198
X0141115
X0138031
X0134948
Y0069631
X0138031
X0141115
X0144198
X0147281
X0150365
X0153448
Y0066421
X0150365
X0147281
X0144198
X0141115
X0138031
X0134948
Y006321
X0138031
X0141115
X0144198
X0147281
X0150365
X0153448
Y006
X0150365
X0147281
X0144198
X0141115
X0138031
X0134948
Y0076052
X0138031
X0141115
X0144198
X0147281
X0143016Y00885
X0155905Y0100756
X0151Y0114
X01415
X013412Y011478
X0131299Y0110598
X0129Y01065
X0126378Y0100756
X0121457Y0110598
X0111614
X0109Y01045
Y01015
Y00985
X01125Y0097778
X01015Y0105
X0101772Y0110598
X0091929
X0102Y00855
X0107Y0084311
X0109063Y0077
X0111175Y00785
X0115409Y0081
X011Y0072636
Y0070364
Y0050909
X0110423Y0047
X0117601
X01185Y0050909
X01215Y0034
X01185Y00305
X0115Y0034
X01055Y0033
X0111816Y0025
X0116535Y0022016
X01225Y0023154
X01285Y002
X0134Y00185
X0142Y0024
X0146063Y0022016
X0155905
X0159Y00195
X0161Y0045
X0149Y00515
X0145Y0051224
X01935Y0045333
X0195276Y0041701
X0199427
X0203Y00435
X0203733Y0050253
X0206987Y0047747
X0205497Y0058573
X0205118Y0061386
X02095Y0037512
X0198Y00345
X0192Y0037
Y00405
X0185433Y0002331
X0175591
X0106693
X009685
X0087008
X0088Y00085
X0091929Y0012173
X0101772
X0082087
X0072244
X0068Y00075
X0067323Y0002331
X0077165
Y0022016
X0083209Y0025728
X0082087Y0031858
X0072244
X0062402
X0067323Y0041701
X005748
X00605Y00465
X005748Y0022016
X0067323
X0062402Y0012173
X005748Y0002331
X0087008Y0022016
X0065097Y0069532
X0062402Y0090913
X0056914Y0085491
X0175591Y00865
Y0081071
X01735Y0079
X0171Y01065
Y0114
X0161
X022
X0229
X0238368Y01085
X0245879Y010625
X0244488Y0100756
X0254331
X0253035Y01075
X0259252Y0110598
X0264173Y0114865
X0269094Y0110598
X0264173Y0100756
X02675Y0096
X0269094Y0090913
X02645Y0089
X0264173Y0081071
X02705
X0269094Y0071228
X0264173
X02565Y0073
Y0067
X0254331Y0061386
X0264173
X02655Y00565
X0269094Y0051543
X02665Y00475
X0272Y0045
X0264173Y0041701
X0254331
X02575Y0046695
Y0054061
X0242Y00565
X0234646Y0061386
X02385Y00655
X0247894
X024941Y0071228
X0254331Y0081071
X02565Y0091034
X0273Y0099
X0272Y00615
X0269094Y0031858
X0265195Y0029165
X0264173Y0022016
X02675Y0017125
X0269094Y0012173
X0268Y0007
X0272Y0006
X0264173Y0002331
X0259Y0007
X0254331Y0002331
X0244488
X0234646
X0224803
X022Y0007
X0219882Y0012173
X0229724
X0224803Y0022016
X0214961
Y0041701
Y0055186
X0213577Y0058573
X0214961Y0061386
X02175Y0066598
X0227Y00675
X0229724Y0071228
X0232Y0076
X0234646Y0081071
X0238718Y00795
X02275Y00825
X0214961Y0081071
X0217Y0086847
X0214961Y0090553
X0217Y009533
X0214961Y0100756
X02295Y0058
X0259252Y0031858
X02715Y00265
X0214961Y0002331
Y0120441
X0224803
X0229724Y0130283
X0219882
X0222Y01395
X02315
X0238368Y0141748
X0254632
X0265Y01405
Y0135245
X0272
Y01405
X0269094Y0130283
X02725Y01255
X02715Y01185
X0264173Y0120441
X0205118
X0195276
X0185433
X0175591
X0165748
X0155905
X0146063
X0136221
X0126378
X0116535
X0106693
X009685
X0087008
X0077165
X0067323
X005748
X0062402Y0130283
X0072244
X0082087
X0091929
X0101772
X0111614
X0121457
X0131299
X0141142
X0150984
X0160827
X0170669
X0180512
X0190354
X0200197
X01995Y01385
X01885Y0139
X0176
X0166
X0157
X0146
X01355
X01265
X0117272Y0138983
X0106Y01395
X00965
X00875Y014
X0077Y01395
X00675
X0211Y0139
X0210039Y0130283
X0052559
X0056Y01395
X005Y01405
X0042372Y01415
X002Y01395
X00135Y01355
X0013189Y0130283
X00115Y0125
X0008268Y0120441
X0004Y0118
X0005Y01295
X0007Y01385
X001811Y0120441
T02
X0026515Y0014515
X0035Y0011
X0043485Y0014515
X0047Y0023
X0043485Y0031485
X0035Y0035
X0026515Y0031485
X0023Y0023
X0026515Y0115515
X0035Y0112
X0043485Y0115515
X0066917Y0091232
Y0084342
Y00745
Y0064657
Y0057768
X0238368Y0028339
X0247Y00315
X0255339Y0027632
X02585Y0019
X0254632Y0010661
X0246Y00075
X0237661Y0011368
X02345Y002
X02465Y01145
X0254632Y0117868
X0258Y0126
X0254632Y0134132
X02465Y01375
X0238368Y0134132
X0235Y0126
X0238368Y0117868
X0047Y0124
X0043485Y0132485
X0035Y0136
X0026515Y0132485
X0023Y0124
T03
X0199Y0049
Y0059
Y0069
Y0079
Y0089
X0209Y0084
Y0074
Y0064
Y0054
Y0094
T04
X0051169Y0069579
Y0079421
X0059043
Y0069579
X0250024Y0055378
Y0045378
Y0087622
Y0097622
T05
X0221992Y0040811
Y0102189
T06
X00405Y0050799
Y0098201
T07
X0035Y0023
X02465Y00195
Y0126
X0035Y0124
T08
X0234Y0049
Y0094
M30
