G04*
G04 #@! TF.GenerationSoftware,Altium Limited,Altium Designer,24.6.1 (21)*
G04*
G04 Layer_Color=8388736*
%FSLAX25Y25*%
%MOIN*%
G70*
G04*
G04 #@! TF.SameCoordinates,FFA3FC2B-513C-43E0-A113-19799299DC1D*
G04*
G04*
G04 #@! TF.FilePolarity,Negative*
G04*
G01*
G75*
%ADD13C,0.01000*%
%ADD17R,0.01000X0.02800*%
%ADD18R,0.02800X0.01000*%
%ADD20R,0.06100X0.07700*%
%ADD21R,0.03000X0.02200*%
%ADD22R,0.02200X0.03000*%
%ADD23R,0.01800X0.01800*%
%ADD24R,0.01800X0.01800*%
%ADD32R,0.21300X0.21300*%
G04:AMPARAMS|DCode=33|XSize=53.54mil|YSize=29.13mil|CornerRadius=8.76mil|HoleSize=0mil|Usage=FLASHONLY|Rotation=180.000|XOffset=0mil|YOffset=0mil|HoleType=Round|Shape=RoundedRectangle|*
%AMROUNDEDRECTD33*
21,1,0.05354,0.01161,0,0,180.0*
21,1,0.03602,0.02913,0,0,180.0*
1,1,0.01752,-0.01801,0.00581*
1,1,0.01752,0.01801,0.00581*
1,1,0.01752,0.01801,-0.00581*
1,1,0.01752,-0.01801,-0.00581*
%
%ADD33ROUNDEDRECTD33*%
%ADD34R,0.06299X0.09252*%
%ADD35R,0.09252X0.06299*%
%ADD36R,0.03913X0.04465*%
%ADD37R,0.02559X0.02953*%
%ADD38R,0.02559X0.01772*%
%ADD39R,0.02526X0.03511*%
%ADD40R,0.03511X0.02526*%
%ADD41C,0.32296*%
%ADD42C,0.04341*%
%ADD43C,0.05740*%
%ADD44C,0.06614*%
%ADD45R,0.06614X0.06614*%
%ADD46C,0.14039*%
%ADD47C,0.06284*%
%ADD48C,0.09921*%
%ADD49C,0.07008*%
%ADD50C,0.04550*%
%ADD51C,0.03750*%
G36*
X227501Y143500D02*
X276500D01*
Y107500D01*
X266000D01*
X259384Y114116D01*
X255164Y114116D01*
X255164Y114070D01*
X255146Y113981D01*
X255111Y113897D01*
X255060Y113821D01*
X255028Y113789D01*
X255028D01*
X245399Y113789D01*
X245638Y113729D01*
X246040Y113446D01*
X246314Y113037D01*
X246422Y112557D01*
X246350Y112070D01*
X246109Y111642D01*
X245729Y111329D01*
X245262Y111174D01*
X244771Y111197D01*
X244320Y111395D01*
X243971Y111741D01*
X243770Y112191D01*
X243757Y112436D01*
X240003Y114690D01*
X240132Y114314D01*
X239987Y113944D01*
X239639Y113755D01*
X239250Y113835D01*
X239005Y114147D01*
X239019Y114544D01*
X239285Y114838D01*
X239482Y114864D01*
X239482Y114864D01*
X236714Y119093D01*
X236008Y119432D01*
X234779Y120403D01*
X233791Y121618D01*
X233091Y123019D01*
X232714Y124539D01*
X232677Y126105D01*
X232983Y127641D01*
X233616Y129074D01*
X234081Y129704D01*
X234081Y129704D01*
X227651Y136134D01*
X227615Y136170D01*
X227559Y136255D01*
X227520Y136349D01*
X227500Y136449D01*
X227500Y136500D01*
X227500Y136500D01*
X48501Y136500D01*
X48501Y136451D01*
X48482Y136351D01*
X48443Y136256D01*
X48386Y136171D01*
X48350Y136135D01*
X45208Y132994D01*
X46572Y131630D01*
X46572Y131630D01*
X47269Y130934D01*
X48363Y129296D01*
X49117Y127476D01*
X49501Y125544D01*
X49501Y124559D01*
X49501Y118014D01*
X49501Y118014D01*
X49457Y117499D01*
X49170Y116504D01*
X48694Y115585D01*
X48048Y114777D01*
X47652Y114444D01*
X45208Y112000D01*
X45208Y112000D01*
X44871Y111705D01*
X44095Y111258D01*
X43246Y110971D01*
X42357Y110856D01*
X41910Y110886D01*
X29500Y112000D01*
X29500D01*
X29329Y111943D01*
X28975Y111884D01*
X28615D01*
X28260Y111943D01*
X28089Y112000D01*
X23406Y114666D01*
X23333Y114488D01*
X22945Y114167D01*
X22698Y114117D01*
X16617D01*
X9501Y107001D01*
Y99500D01*
X-500D01*
Y143502D01*
X227501D01*
Y143500D01*
D02*
G37*
G36*
X9478Y49500D02*
X9500D01*
Y37000D01*
X16613Y29887D01*
X20814Y29887D01*
Y29932D01*
X20832Y30022D01*
X20867Y30106D01*
X20918Y30181D01*
X20950Y30213D01*
X20950Y30213D01*
X27708Y36972D01*
X27789Y37053D01*
X27979Y37179D01*
X28189Y37267D01*
X28413Y37311D01*
X28527Y37311D01*
X28527Y37311D01*
X41555Y37311D01*
X41707Y37311D01*
X41719Y37309D01*
X41730Y37309D01*
X42029Y37249D01*
X42311Y37133D01*
X42565Y36963D01*
X42673Y36855D01*
X42673Y36855D01*
X48617Y30911D01*
X48827Y30701D01*
X49157Y30207D01*
X49384Y29658D01*
X49500Y29076D01*
X49500Y28779D01*
X49500Y28779D01*
X49500Y19443D01*
X49500Y18458D01*
X49116Y16526D01*
X48362Y14706D01*
X47268Y13068D01*
X46571Y12372D01*
X45207Y11008D01*
X48349Y7866D01*
X48385Y7830D01*
X48441Y7745D01*
X48480Y7651D01*
X48500Y7551D01*
X48500Y7502D01*
X137978Y7502D01*
X227478Y7502D01*
Y7502D01*
X227478D01*
X227478Y7553D01*
X227498Y7653D01*
X227537Y7748D01*
X227593Y7833D01*
X227629Y7869D01*
X234059Y14298D01*
X234059D01*
X233594Y14928D01*
X232961Y16361D01*
X232655Y17897D01*
X232692Y19463D01*
X233069Y20983D01*
X233769Y22384D01*
X234757Y23600D01*
X235986Y24570D01*
X236692Y24910D01*
X239460Y29138D01*
X239460D01*
X239263Y29164D01*
X238997Y29458D01*
X238983Y29855D01*
X239228Y30167D01*
X239617Y30247D01*
X239626Y30242D01*
X239639Y30245D01*
X239987Y30055D01*
X240132Y29686D01*
X240010Y29330D01*
X243735Y31566D01*
D01*
X243735Y31566D01*
X243735Y31566D01*
X243748Y31812D01*
X243949Y32261D01*
X244298Y32608D01*
X244748Y32806D01*
X245240Y32829D01*
X245249Y32826D01*
X245262Y32826D01*
X245729Y32671D01*
X246109Y32358D01*
X246350Y31930D01*
X246422Y31443D01*
X246314Y30963D01*
X246040Y30554D01*
X245638Y30271D01*
X245408Y30213D01*
X255006D01*
X255006Y30213D01*
X255008Y30211D01*
X255028D01*
X255028Y30211D01*
X255060Y30179D01*
X255111Y30103D01*
X255146Y30019D01*
X255164Y29930D01*
X255164Y29887D01*
X259362Y29887D01*
X265476Y36000D01*
X276500D01*
Y502D01*
X275500D01*
Y500D01*
X500D01*
Y502D01*
X-1000D01*
Y49502D01*
X9478D01*
Y49500D01*
D02*
G37*
%LPC*%
G36*
X22747Y116111D02*
X22242Y116109D01*
X21799Y115870D01*
X21659Y115660D01*
D01*
Y115660D01*
Y115660D01*
X23406Y114666D01*
X23525Y114955D01*
X23474Y115456D01*
X23192Y115875D01*
X22747Y116111D01*
D02*
G37*
G36*
X239833Y114792D02*
X240003Y114690D01*
Y114690D01*
X239833Y114792D01*
D02*
G37*
G36*
X227478Y7502D02*
D01*
Y7502D01*
Y7502D01*
D02*
G37*
%LPD*%
D13*
X45207Y10409D02*
Y11008D01*
X45187Y10813D02*
Y10990D01*
X48500Y7500D02*
X228362D01*
X48478Y7502D02*
X228340D01*
X47616D02*
X227478D01*
X47638Y7500D02*
X227500D01*
X45185Y10411D02*
Y11010D01*
X45164Y10816D02*
Y10993D01*
X48500Y136500D02*
X228362D01*
X47639Y136502D02*
X227501D01*
D17*
X154827Y54800D02*
D03*
X152858D02*
D03*
X150890D02*
D03*
X148921D02*
D03*
X146953D02*
D03*
X144984D02*
D03*
X143016D02*
D03*
X141047D02*
D03*
X139079D02*
D03*
X137110D02*
D03*
X135142D02*
D03*
X133173D02*
D03*
Y81200D02*
D03*
X135142D02*
D03*
X137110D02*
D03*
X139079D02*
D03*
X141047D02*
D03*
X143016D02*
D03*
X144984D02*
D03*
X146953D02*
D03*
X148921D02*
D03*
X150890D02*
D03*
X152858D02*
D03*
X154827D02*
D03*
D18*
X130800Y57173D02*
D03*
Y59142D02*
D03*
Y61110D02*
D03*
Y63079D02*
D03*
Y65047D02*
D03*
Y67016D02*
D03*
Y68984D02*
D03*
Y70953D02*
D03*
Y72921D02*
D03*
Y74890D02*
D03*
Y76858D02*
D03*
Y78827D02*
D03*
X157200D02*
D03*
Y76858D02*
D03*
Y74890D02*
D03*
Y72921D02*
D03*
Y70953D02*
D03*
Y68984D02*
D03*
Y67016D02*
D03*
Y65047D02*
D03*
Y63079D02*
D03*
Y61110D02*
D03*
Y59142D02*
D03*
Y57173D02*
D03*
D20*
X151000Y26000D02*
D03*
X136000D02*
D03*
D21*
X91500Y88350D02*
D03*
Y93650D02*
D03*
X118500Y59150D02*
D03*
Y53850D02*
D03*
X121500Y42150D02*
D03*
Y36850D02*
D03*
X115000Y42150D02*
D03*
Y36850D02*
D03*
D22*
X135150Y88500D02*
D03*
X129850D02*
D03*
D23*
X85000Y91700D02*
D03*
Y95300D02*
D03*
X108004Y37500D02*
D03*
Y41100D02*
D03*
X164000Y45554D02*
D03*
Y49154D02*
D03*
Y37700D02*
D03*
Y41300D02*
D03*
D24*
X188800Y40500D02*
D03*
X185200D02*
D03*
X188800Y37000D02*
D03*
X185200D02*
D03*
X188800Y44000D02*
D03*
X185200D02*
D03*
D32*
X144000Y68000D02*
D03*
D33*
X95059Y100260D02*
D03*
Y107740D02*
D03*
X104941D02*
D03*
Y104000D02*
D03*
Y100260D02*
D03*
D34*
X121437Y104000D02*
D03*
X113563D02*
D03*
D35*
X168000Y94437D02*
D03*
Y86563D02*
D03*
D36*
X99272Y94000D02*
D03*
X105728D02*
D03*
D37*
X88000Y62594D02*
D03*
Y68500D02*
D03*
Y74405D02*
D03*
D38*
X90559Y77358D02*
D03*
Y74405D02*
D03*
Y71453D02*
D03*
Y68500D02*
D03*
Y65547D02*
D03*
Y62594D02*
D03*
Y59642D02*
D03*
X85441Y58657D02*
D03*
Y60626D02*
D03*
Y62594D02*
D03*
Y64563D02*
D03*
Y66531D02*
D03*
Y68500D02*
D03*
Y70468D02*
D03*
Y72437D02*
D03*
Y74405D02*
D03*
Y76374D02*
D03*
Y78342D02*
D03*
D39*
X88000Y105646D02*
D03*
Y101354D02*
D03*
X114000Y93646D02*
D03*
Y89354D02*
D03*
X123000Y93646D02*
D03*
Y89354D02*
D03*
X153500Y41354D02*
D03*
Y45646D02*
D03*
X146000Y92146D02*
D03*
Y87854D02*
D03*
X126000Y49354D02*
D03*
Y53646D02*
D03*
X132000Y41354D02*
D03*
Y45646D02*
D03*
X137500Y41208D02*
D03*
Y45500D02*
D03*
X151500Y87854D02*
D03*
Y92146D02*
D03*
X158500Y41354D02*
D03*
Y45646D02*
D03*
X110000Y54354D02*
D03*
Y58646D02*
D03*
X148500Y41354D02*
D03*
Y45646D02*
D03*
X81500Y105646D02*
D03*
Y101354D02*
D03*
X158500Y92146D02*
D03*
Y87854D02*
D03*
X143000Y41354D02*
D03*
Y45646D02*
D03*
X169500Y41354D02*
D03*
Y45646D02*
D03*
X128500Y27146D02*
D03*
Y22854D02*
D03*
X159000Y27146D02*
D03*
Y22854D02*
D03*
D40*
X165354Y61000D02*
D03*
X169646D02*
D03*
X165354Y67000D02*
D03*
X169646D02*
D03*
X165354Y73000D02*
D03*
X169646D02*
D03*
X165354Y79000D02*
D03*
X169646D02*
D03*
X119354Y81000D02*
D03*
X123646D02*
D03*
X85854Y52000D02*
D03*
X90146D02*
D03*
X135354Y95500D02*
D03*
X139646D02*
D03*
X118146Y69000D02*
D03*
X113854D02*
D03*
X184354Y49000D02*
D03*
X188646D02*
D03*
X118146Y74000D02*
D03*
X113854D02*
D03*
X189146Y30500D02*
D03*
X184854D02*
D03*
X52354Y46500D02*
D03*
X56646D02*
D03*
D41*
X246500Y19500D02*
D03*
X35000Y23000D02*
D03*
X246500Y126000D02*
D03*
X35000Y124000D02*
D03*
D42*
X23000D02*
D03*
X47000D02*
D03*
D43*
X66917Y57768D02*
D03*
Y64657D02*
D03*
Y74500D02*
D03*
Y84342D02*
D03*
Y91232D02*
D03*
D44*
X51169Y69579D02*
D03*
Y79421D02*
D03*
X59043D02*
D03*
X250024Y45378D02*
D03*
Y55378D02*
D03*
Y87622D02*
D03*
Y97622D02*
D03*
D45*
X59043Y69579D02*
D03*
D46*
X40500Y50799D02*
D03*
Y98201D02*
D03*
D47*
X199000Y49000D02*
D03*
X209000Y54000D02*
D03*
X199000Y59000D02*
D03*
X209000Y64000D02*
D03*
X199000Y69000D02*
D03*
X209000Y74000D02*
D03*
X199000Y79000D02*
D03*
X209000Y84000D02*
D03*
X199000Y89000D02*
D03*
X209000Y94000D02*
D03*
D48*
X221992Y40811D02*
D03*
Y102189D02*
D03*
D49*
X234000Y94000D02*
D03*
Y49000D02*
D03*
D50*
X254632Y10661D02*
D03*
X246000Y7500D02*
D03*
X237661Y11368D02*
D03*
X234500Y20000D02*
D03*
X238368Y28339D02*
D03*
X247000Y31500D02*
D03*
X255339Y27632D02*
D03*
X258500Y19000D02*
D03*
X43485Y115515D02*
D03*
X35000Y112000D02*
D03*
X26515Y115515D02*
D03*
X35000Y136000D02*
D03*
X43485Y132485D02*
D03*
Y14515D02*
D03*
X35000Y11000D02*
D03*
X26515Y14515D02*
D03*
X23000Y23000D02*
D03*
X35000Y35000D02*
D03*
X43485Y31485D02*
D03*
X47000Y23000D02*
D03*
X258000Y126000D02*
D03*
X254632Y117868D02*
D03*
Y134132D02*
D03*
X246500Y137500D02*
D03*
Y114500D02*
D03*
X238368Y134132D02*
D03*
Y117868D02*
D03*
X235000Y126000D02*
D03*
D51*
X26515Y132485D02*
D03*
Y31485D02*
D03*
M02*
