G04*
G04 #@! TF.GenerationSoftware,Altium Limited,Altium Designer,24.6.1 (21)*
G04*
G04 Layer_Physical_Order=3*
G04 Layer_Color=128*
%FSLAX25Y25*%
%MOIN*%
G70*
G04*
G04 #@! TF.SameCoordinates,FFA3FC2B-513C-43E0-A113-19799299DC1D*
G04*
G04*
G04 #@! TF.FilePolarity,Negative*
G04*
G01*
G75*
%ADD69C,0.00010*%
%ADD70C,0.03950*%
%ADD71C,0.04816*%
%ADD72C,0.10249*%
%ADD73C,0.04304*%
%ADD74C,0.07021*%
%ADD75C,0.13635*%
%ADD76C,0.01587*%
D69*
X-1500Y0D02*
Y144000D01*
X277000D01*
Y0D02*
Y144000D01*
X-1500Y0D02*
X277000D01*
D70*
X66917Y57768D02*
D03*
Y64657D02*
D03*
Y84342D02*
D03*
Y91232D02*
D03*
D71*
X51169Y79421D02*
D03*
X59043D02*
D03*
Y69579D02*
D03*
X250024Y45378D02*
D03*
Y55378D02*
D03*
Y87622D02*
D03*
Y97622D02*
D03*
D72*
X40500Y50799D02*
D03*
Y98201D02*
D03*
D73*
X199000Y49000D02*
D03*
X209000Y54000D02*
D03*
X199000Y59000D02*
D03*
X209000Y64000D02*
D03*
X199000Y69000D02*
D03*
X209000Y74000D02*
D03*
X199000Y79000D02*
D03*
X209000Y84000D02*
D03*
X199000Y89000D02*
D03*
D74*
X221992Y40811D02*
D03*
Y102189D02*
D03*
D75*
X234000Y94000D02*
D03*
Y49000D02*
D03*
D76*
X162500Y81886D02*
D03*
X192000Y37000D02*
D03*
Y40500D02*
D03*
X181000Y44000D02*
D03*
Y40500D02*
D03*
Y37000D02*
D03*
X182799D02*
D03*
Y40500D02*
D03*
Y44000D02*
D03*
X124000Y63000D02*
D03*
X129500Y45000D02*
D03*
X118500Y50909D02*
D03*
X127500Y64896D02*
D03*
Y67167D02*
D03*
X110000Y72636D02*
D03*
Y70364D02*
D03*
X146000Y40500D02*
D03*
X150365Y84000D02*
D03*
X160500Y71104D02*
D03*
Y68833D02*
D03*
Y76941D02*
D03*
Y74669D02*
D03*
X149000Y51500D02*
D03*
X161000Y45000D02*
D03*
X148921Y88500D02*
D03*
X123000Y52799D02*
D03*
X135142Y45000D02*
D03*
X143016Y88500D02*
D03*
X129850Y92091D02*
D03*
X80699Y66683D02*
D03*
Y64411D02*
D03*
X78500Y105500D02*
D03*
X85000Y98000D02*
D03*
X82000Y58000D02*
D03*
Y60000D02*
D03*
Y91500D02*
D03*
X160500Y65199D02*
D03*
X81000Y72589D02*
D03*
Y70317D02*
D03*
X127500Y77010D02*
D03*
Y74738D02*
D03*
X99000Y83136D02*
D03*
Y80864D02*
D03*
X156000Y92000D02*
D03*
X160500Y59293D02*
D03*
Y57022D02*
D03*
Y62927D02*
D03*
M02*
